<?xml version="1.0" encoding="utf-8"?>
<!-- Generator: Adobe Illustrator 26.0.0, SVG Export Plug-In . SVG Version: 6.00 Build 0)  -->
<svg version="1.1" id="Layer_1" xmlns="http://www.w3.org/2000/svg" xmlns:xlink="http://www.w3.org/1999/xlink" x="0px" y="0px"
	 viewBox="0 0 225 65" style="enable-background:new 0 0 225 65;" xml:space="preserve">
<style type="text/css">
	.st0{fill:#C3C3C3;}
	.st1{fill:#0F0F0F;}
	.st2{fill:#5297FF;}
	.st3{fill:none;stroke:#C3C3C3;stroke-width:2;}
</style>
<path class="st0" d="M1.62,22.42h222v27c0,8.28-6.72,15-15,15h-207V22.42z"/>
<path class="st1" d="M27.3,46.72h5.47c-0.07,1.58-0.5,2.98-1.28,4.19c-0.78,1.21-1.86,2.15-3.25,2.83c-1.38,0.67-3,1-4.88,1
	c-1.52,0-2.88-0.26-4.08-0.77c-1.19-0.51-2.2-1.24-3.03-2.2c-0.82-0.96-1.45-2.12-1.89-3.48c-0.43-1.36-0.64-2.9-0.64-4.61v-1.23
	c0-1.71,0.22-3.24,0.67-4.61c0.46-1.38,1.1-2.54,1.94-3.5c0.84-0.97,1.85-1.71,3.03-2.22c1.18-0.51,2.48-0.77,3.92-0.77
	c1.98,0,3.65,0.35,5.02,1.06c1.36,0.71,2.42,1.68,3.17,2.92c0.75,1.23,1.19,2.63,1.33,4.2h-5.47c-0.02-0.85-0.17-1.57-0.44-2.14
	c-0.27-0.58-0.7-1.02-1.28-1.31c-0.58-0.29-1.36-0.44-2.33-0.44c-0.68,0-1.27,0.12-1.77,0.38s-0.92,0.65-1.25,1.19
	c-0.33,0.54-0.58,1.24-0.75,2.11c-0.16,0.85-0.23,1.89-0.23,3.09v1.27c0,1.21,0.07,2.24,0.22,3.09c0.15,0.85,0.38,1.55,0.7,2.09
	c0.32,0.54,0.74,0.94,1.25,1.2c0.52,0.25,1.16,0.38,1.91,0.38c0.83,0,1.54-0.13,2.11-0.39c0.57-0.27,1.02-0.68,1.33-1.22
	C27.11,48.28,27.28,47.57,27.3,46.72z M50.39,50.2v4.22h-11.5V50.2H50.39z M40.84,31.67v22.75h-5.48V31.67H40.84z M62.66,36.45
	l-5.55,17.97h-5.89l8.36-22.75h3.73L62.66,36.45z M67.25,54.42l-5.56-17.97l-0.72-4.78h3.78l8.41,22.75H67.25z M67.03,45.94v4.23
	H55.36v-4.23H67.03z M86.55,48.38c0-0.35-0.05-0.67-0.16-0.95c-0.1-0.29-0.3-0.56-0.58-0.81s-0.69-0.5-1.22-0.75
	c-0.52-0.26-1.21-0.53-2.06-0.81c-1-0.33-1.96-0.71-2.89-1.12c-0.93-0.43-1.76-0.92-2.48-1.48c-0.73-0.57-1.31-1.24-1.73-2
	c-0.43-0.77-0.64-1.67-0.64-2.69c0-0.98,0.22-1.86,0.66-2.64c0.44-0.79,1.05-1.46,1.83-2.02c0.79-0.56,1.72-0.99,2.78-1.28
	c1.06-0.3,2.22-0.45,3.48-0.45c1.67,0,3.14,0.29,4.41,0.88c1.28,0.57,2.28,1.39,3,2.45c0.73,1.05,1.09,2.3,1.09,3.73h-5.45
	c0-0.57-0.12-1.08-0.36-1.52c-0.23-0.44-0.58-0.78-1.05-1.03c-0.47-0.25-1.06-0.38-1.77-0.38c-0.69,0-1.27,0.1-1.73,0.31
	c-0.47,0.21-0.82,0.49-1.06,0.84c-0.24,0.34-0.36,0.72-0.36,1.14c0,0.34,0.09,0.66,0.28,0.94c0.2,0.27,0.47,0.53,0.83,0.77
	c0.36,0.24,0.8,0.47,1.31,0.69c0.52,0.22,1.1,0.43,1.75,0.64c1.21,0.39,2.28,0.82,3.22,1.3c0.95,0.47,1.74,1.01,2.39,1.61
	c0.66,0.59,1.15,1.27,1.48,2.03c0.34,0.76,0.52,1.62,0.52,2.58c0,1.02-0.2,1.93-0.59,2.72c-0.4,0.79-0.96,1.46-1.7,2.02
	c-0.74,0.54-1.62,0.95-2.66,1.23c-1.03,0.28-2.18,0.42-3.45,0.42c-1.17,0-2.32-0.15-3.45-0.44c-1.12-0.3-2.15-0.76-3.06-1.38
	c-0.92-0.62-1.65-1.42-2.2-2.39c-0.54-0.98-0.81-2.14-0.81-3.48h5.5c0,0.67,0.09,1.23,0.27,1.69s0.44,0.83,0.78,1.11
	c0.34,0.27,0.77,0.47,1.27,0.59c0.5,0.11,1.07,0.17,1.72,0.17c0.7,0,1.26-0.1,1.69-0.3c0.43-0.21,0.74-0.48,0.94-0.81
	C86.45,49.16,86.55,48.78,86.55,48.38z M106.58,48.38c0-0.35-0.05-0.67-0.16-0.95c-0.1-0.29-0.3-0.56-0.58-0.81s-0.69-0.5-1.22-0.75
	c-0.52-0.26-1.21-0.53-2.06-0.81c-1-0.33-1.96-0.71-2.89-1.12c-0.93-0.43-1.76-0.92-2.48-1.48c-0.73-0.57-1.31-1.24-1.73-2
	c-0.43-0.77-0.64-1.67-0.64-2.69c0-0.98,0.22-1.86,0.66-2.64c0.44-0.79,1.05-1.46,1.83-2.02c0.79-0.56,1.72-0.99,2.78-1.28
	c1.06-0.3,2.22-0.45,3.48-0.45c1.67,0,3.13,0.29,4.41,0.88c1.28,0.57,2.28,1.39,3,2.45c0.73,1.05,1.09,2.3,1.09,3.73h-5.45
	c0-0.57-0.12-1.08-0.36-1.52c-0.23-0.44-0.58-0.78-1.05-1.03c-0.47-0.25-1.06-0.38-1.77-0.38c-0.69,0-1.26,0.1-1.73,0.31
	c-0.47,0.21-0.82,0.49-1.06,0.84c-0.24,0.34-0.36,0.72-0.36,1.14c0,0.34,0.09,0.66,0.28,0.94c0.2,0.27,0.47,0.53,0.83,0.77
	c0.36,0.24,0.8,0.47,1.31,0.69c0.52,0.22,1.1,0.43,1.75,0.64c1.21,0.39,2.28,0.82,3.22,1.3c0.95,0.47,1.75,1.01,2.39,1.61
	c0.66,0.59,1.15,1.27,1.48,2.03c0.34,0.76,0.52,1.62,0.52,2.58c0,1.02-0.2,1.93-0.59,2.72c-0.4,0.79-0.96,1.46-1.7,2.02
	c-0.74,0.54-1.62,0.95-2.66,1.23c-1.03,0.28-2.18,0.42-3.45,0.42c-1.17,0-2.32-0.15-3.45-0.44c-1.12-0.3-2.15-0.76-3.06-1.38
	c-0.92-0.62-1.65-1.42-2.2-2.39c-0.54-0.98-0.81-2.14-0.81-3.48h5.5c0,0.67,0.09,1.23,0.27,1.69s0.44,0.83,0.78,1.11
	c0.34,0.27,0.77,0.47,1.27,0.59c0.5,0.11,1.07,0.17,1.72,0.17c0.7,0,1.26-0.1,1.69-0.3c0.43-0.21,0.74-0.48,0.94-0.81
	C106.48,49.16,106.58,48.78,106.58,48.38z M120.72,31.67v22.75h-5.47V31.67H120.72z M137.52,46.72h5.47
	c-0.07,1.58-0.5,2.98-1.28,4.19c-0.78,1.21-1.86,2.15-3.25,2.83c-1.38,0.67-3,1-4.88,1c-1.52,0-2.88-0.26-4.08-0.77
	c-1.19-0.51-2.2-1.24-3.03-2.2c-0.82-0.96-1.45-2.12-1.89-3.48c-0.43-1.36-0.64-2.9-0.64-4.61v-1.23c0-1.71,0.22-3.24,0.67-4.61
	c0.46-1.38,1.1-2.54,1.94-3.5c0.84-0.97,1.85-1.71,3.03-2.22c1.18-0.51,2.49-0.77,3.92-0.77c1.98,0,3.65,0.35,5.02,1.06
	c1.36,0.71,2.42,1.68,3.17,2.92c0.75,1.23,1.19,2.63,1.33,4.2h-5.47c-0.02-0.85-0.17-1.57-0.44-2.14c-0.27-0.58-0.7-1.02-1.28-1.31
	c-0.58-0.29-1.36-0.44-2.33-0.44c-0.68,0-1.27,0.12-1.77,0.38s-0.92,0.65-1.25,1.19c-0.33,0.54-0.58,1.24-0.75,2.11
	c-0.16,0.85-0.23,1.89-0.23,3.09v1.27c0,1.21,0.07,2.24,0.22,3.09c0.15,0.85,0.38,1.55,0.7,2.09s0.74,0.94,1.25,1.2
	c0.52,0.25,1.16,0.38,1.91,0.38c0.83,0,1.54-0.13,2.11-0.39c0.57-0.27,1.02-0.68,1.33-1.22C137.33,48.28,137.49,47.57,137.52,46.72z
	 M157.3,48.38c0-0.35-0.05-0.67-0.16-0.95c-0.11-0.29-0.3-0.56-0.58-0.81c-0.28-0.25-0.69-0.5-1.22-0.75
	c-0.52-0.26-1.21-0.53-2.06-0.81c-1-0.33-1.96-0.71-2.89-1.12c-0.93-0.43-1.76-0.92-2.49-1.48c-0.73-0.57-1.31-1.24-1.73-2
	c-0.43-0.77-0.64-1.67-0.64-2.69c0-0.98,0.22-1.86,0.66-2.64c0.44-0.79,1.05-1.46,1.83-2.02c0.79-0.56,1.72-0.99,2.78-1.28
	c1.06-0.3,2.22-0.45,3.48-0.45c1.67,0,3.14,0.29,4.41,0.88c1.28,0.57,2.28,1.39,3,2.45c0.73,1.05,1.09,2.3,1.09,3.73h-5.45
	c0-0.57-0.12-1.08-0.36-1.52c-0.23-0.44-0.58-0.78-1.05-1.03c-0.47-0.25-1.06-0.38-1.77-0.38c-0.69,0-1.26,0.1-1.73,0.31
	c-0.47,0.21-0.82,0.49-1.06,0.84C151.12,37,151,37.38,151,37.8c0,0.34,0.09,0.66,0.28,0.94c0.2,0.27,0.47,0.53,0.83,0.77
	c0.37,0.24,0.8,0.47,1.31,0.69c0.52,0.22,1.1,0.43,1.75,0.64c1.21,0.39,2.28,0.82,3.22,1.3c0.95,0.47,1.74,1.01,2.39,1.61
	c0.66,0.59,1.15,1.27,1.49,2.03c0.34,0.76,0.51,1.62,0.51,2.58c0,1.02-0.2,1.93-0.59,2.72c-0.39,0.79-0.96,1.46-1.7,2.02
	c-0.74,0.54-1.62,0.95-2.66,1.23c-1.03,0.28-2.18,0.42-3.45,0.42c-1.17,0-2.32-0.15-3.45-0.44c-1.12-0.3-2.15-0.76-3.06-1.38
	c-0.92-0.62-1.65-1.42-2.2-2.39c-0.54-0.98-0.81-2.14-0.81-3.48h5.5c0,0.67,0.09,1.23,0.26,1.69c0.18,0.46,0.44,0.83,0.78,1.11
	c0.34,0.27,0.76,0.47,1.26,0.59c0.5,0.11,1.07,0.17,1.72,0.17c0.7,0,1.26-0.1,1.69-0.3c0.43-0.21,0.74-0.48,0.94-0.81
	C157.2,49.16,157.3,48.78,157.3,48.38z"/>
<path class="st2" d="M184.59,31.67v22.75h-5.49V31.67H184.59z M191.44,31.67v4.23h-19.01v-4.23H191.44z M202.62,49.06l4.73-17.39
	h6.14l-7.67,22.75h-3.97L202.62,49.06z M198.33,31.67l4.74,17.39l0.8,5.36h-4.01l-7.62-22.75H198.33z"/>
<line class="st3" x1="93.36" y1="1.75" x2="113.36" y2="23.75"/>
<line class="st3" x1="125.2" y1="5.99" x2="108.45" y2="30.55"/>
</svg>
